<svg width="24" height="24" viewBox="0 0 24 24" fill="none" xmlns="http://www.w3.org/2000/svg">
<path d="M16.794 3.75C18.118 3.75 19.362 4.266 20.298 5.201C21.2262 6.13092 21.7475 7.39112 21.7475 8.705C21.7475 10.0189 21.2262 11.2791 20.298 12.209L12 20.508L3.70102 12.209C2.77313 11.2791 2.25201 10.0191 2.25201 8.7055C2.25201 7.39186 2.77313 6.13188 3.70102 5.202C4.16005 4.7403 4.7061 4.37424 5.30757 4.125C5.90903 3.87576 6.55396 3.7483 7.20502 3.75C8.52902 3.75 9.77302 4.266 10.709 5.201L11.469 5.961L12 6.492L12.53 5.961L13.29 5.201C13.7492 4.73962 14.2953 4.37382 14.8968 4.12477C15.4982 3.87572 16.1431 3.74834 16.794 3.75Z" stroke="#111111" stroke-width="1.5"/>
</svg>
