<svg width="24" height="24" viewBox="0 0 24 24" fill="none" xmlns="http://www.w3.org/2000/svg">
<path d="M13.05 4.14V4.08C13.05 3.8 13.14 3.55 13.32 3.33C13.5 3.11 13.73 3 14.01 3C14.29 3 14.54 3.09 14.76 3.27C14.98 3.45 15.1 3.69 15.12 3.99C15.14 4.29 15.05 4.54 14.85 4.74C14.65 4.94 14.41 5.04 14.13 5.04L13.95 5.1L14.01 5.19L13.95 5.52L13.83 6.48C13.87 6.52 13.89 6.56 13.89 6.6L13.77 7.2C13.73 7.28 13.69 7.34 13.65 7.38L13.59 7.62C13.51 7.94 13.44 8.2 13.38 8.4C13.32 8.6 13.27 8.76 13.23 8.88V9C13.19 9.2 13.16 9.36 13.14 9.48C13.12 9.6 13.05 9.8 12.93 10.08C12.85 10.24 12.85 10.5 12.93 10.86L12.99 10.92C12.99 11.04 13.04 11.18 13.14 11.34C13.24 11.5 13.29 11.64 13.29 11.76C13.33 12.56 13.27 13.24 13.11 13.8L13.23 14.16C13.71 14.4 13.85 14.66 13.65 14.94L13.95 15.06C14.43 15.3 14.77 15.51 14.97 15.69C15.17 15.87 15.37 16.06 15.57 16.26C15.73 16.3 15.85 16.36 15.93 16.44L16.11 16.5C16.95 17.06 17.79 17.74 18.63 18.54L18.87 18.72V18.78L18.81 18.9L18.99 19.02H19.05C19.17 19.1 19.25 19.14 19.29 19.14H19.35C19.39 19.14 19.43 19.12 19.47 19.08L19.59 19.02C19.67 18.94 19.75 18.88 19.83 18.84H20.07C20.11 18.84 20.11 18.86 20.07 18.9L19.83 19.02L19.53 19.38H19.95L20.37 19.44C20.49 19.4 20.59 19.36 20.67 19.32L20.97 19.14C21.09 19.1 21.21 19.14 21.33 19.26H21.39C21.43 19.3 21.41 19.36 21.33 19.44L20.61 20.1C20.41 20.26 20.23 20.36 20.07 20.4L19.29 20.94C19.25 20.98 19.21 20.98 19.17 20.94L18.99 20.7L18.87 20.46L18.72 20.25L18.54 20.01L18.39 19.83L18.27 19.68L18.03 19.5C17.95 19.5 17.87 19.48 17.79 19.44L17.01 18.84C16.89 18.84 16.75 18.78 16.59 18.66C15.99 18.14 15.59 17.82 15.39 17.7L15.03 17.46L14.31 17.34C14.07 17.3 13.75 17.18 13.35 16.98L12.87 16.74C12.55 16.58 12.33 16.5 12.21 16.5L11.97 16.38C11.81 16.34 11.69 16.3 11.61 16.26L11.49 16.14C11.41 16.14 11.33 16.16 11.25 16.2L10.05 16.8L8.55002 17.46C8.15002 17.78 7.77002 18.04 7.41002 18.24L6.75002 18.54L5.73002 19.26C5.65002 19.34 5.57002 19.34 5.49002 19.26L5.37002 19.38C5.25002 19.42 5.17002 19.44 5.13002 19.44L4.89002 19.56V19.68H4.77002L4.65002 19.86C4.57002 20.02 4.49002 20.11 4.41002 20.13C4.33002 20.15 4.28002 20.18 4.26002 20.22C4.24002 20.26 4.22002 20.29 4.20002 20.31L4.08002 20.43L3.90002 20.55L3.63002 20.52L3.27002 20.58L3.03002 20.64C2.83002 20.68 2.67002 20.65 2.55002 20.55C2.43002 20.45 2.33002 20.3 2.25002 20.1C2.17002 19.98 2.21002 19.88 2.37002 19.8L2.43002 19.74C2.47002 19.7 2.53002 19.68 2.61002 19.68H2.97002L3.45002 19.5L3.69002 19.44C3.69002 19.36 3.71002 19.3 3.75002 19.26C3.79002 19.22 3.85002 19.2 3.93002 19.2V19.14C3.89002 19.06 3.87002 18.98 3.87002 18.9C3.83002 18.82 3.82002 18.76 3.84002 18.72C3.86002 18.68 3.88002 18.66 3.90002 18.66H3.93002L3.99002 18.84C4.03002 19.04 4.09002 19.1 4.17002 19.02L4.23002 18.9C4.27002 18.82 4.33002 18.78 4.41002 18.78L4.53002 18.9L4.65002 18.78L4.59002 18.72C4.59002 18.68 4.61002 18.66 4.65002 18.66L4.89002 18.42C5.09002 18.18 5.33002 17.96 5.61002 17.76C6.17002 17.32 6.77002 16.98 7.41002 16.74C7.61002 16.54 7.83002 16.44 8.07002 16.44C8.23002 16.16 8.47002 15.86 8.79002 15.54C9.07002 15.34 9.27002 15.2 9.39002 15.12C9.47002 14.96 9.57002 14.88 9.69002 14.88H9.75002L9.87002 14.76C9.95002 14.72 10.01 14.68 10.05 14.64V14.34C10.05 14.14 10.07 13.98 10.11 13.86C10.15 13.74 10.25 13.68 10.41 13.68L10.65 13.44C10.57 13.28 10.53 13.1 10.53 12.9H10.47C10.39 12.78 10.35 12.66 10.35 12.54C10.23 12.34 10.15 12.18 10.11 12.06H9.93002C9.89002 12.18 9.79002 12.26 9.63002 12.3L9.57002 12.42C9.41002 12.7 9.27002 12.91 9.15002 13.05C9.03002 13.19 8.81002 13.36 8.49002 13.56C8.29002 13.76 8.15002 13.98 8.07002 14.22C8.03002 14.34 8.03002 14.46 8.07002 14.58L8.01002 14.7H8.07002C8.07002 14.78 8.09002 14.82 8.13002 14.82H8.19002C8.27002 14.86 8.31002 14.91 8.31002 14.97C8.31002 15.03 8.25002 15.05 8.13002 15.03C8.01002 15.01 7.92002 14.97 7.86002 14.91C7.80002 14.85 7.75002 14.82 7.71002 14.82L7.53002 15C7.45002 15.12 7.37002 15.17 7.29002 15.15C7.21002 15.13 7.19002 15.1 7.23002 15.06L7.29002 15C7.33002 14.92 7.33002 14.88 7.29002 14.88L6.81002 15C6.77002 15.04 6.72002 15.04 6.66002 15C6.60002 14.96 6.61002 14.92 6.69002 14.88L6.99002 14.76C6.99002 14.72 6.97002 14.7 6.93002 14.7C6.77002 14.78 6.61002 14.8 6.45002 14.76L6.15002 14.7L6.09002 14.64C6.09002 14.6 6.11002 14.58 6.15002 14.58C6.31002 14.62 6.51002 14.6 6.75002 14.52L7.17002 14.34L7.65002 13.8L7.71002 13.68C7.87002 13.36 8.04002 13.07 8.22002 12.81C8.40002 12.55 8.59002 12.34 8.79002 12.18L8.85002 11.94C8.93002 11.78 9.01002 11.64 9.09002 11.52C9.17002 11.4 9.27002 11.24 9.39002 11.04L9.57002 10.8C9.73002 10.56 9.91002 10.44 10.11 10.44L10.29 10.26C10.33 10.22 10.35 10.16 10.35 10.08L10.47 9.96L10.41 9.9C10.17 9.7 10.05 9.52 10.05 9.36C10.01 9.08 10.1 8.84 10.32 8.64C10.54 8.44 10.76 8.35 10.98 8.37C11.2 8.39 11.37 8.46 11.49 8.58L11.61 8.7C11.65 8.7 11.67 8.72 11.67 8.76L11.91 8.88V9.06C11.99 9.14 12.03 9.2 12.03 9.24C12.11 9.12 12.23 8.98 12.39 8.82L12.69 7.86C12.69 7.7 12.73 7.54 12.81 7.38L12.93 7.2V7.08L13.11 6.36H13.23L13.41 5.64C13.45 5.52 13.45 5.38 13.41 5.22L13.17 4.62L13.05 4.14Z" fill="#111111"/>
</svg>
