<svg width="46" height="16" viewBox="0 0 46 16" fill="none" xmlns="http://www.w3.org/2000/svg">
<g clip-path="url(#clip0_1_322)">
<g clip-path="url(#clip1_1_322)">
<path d="M4.41597 1.01492C2.53134 1.43432 1.24904 3.07715 1.16189 5.19192C1.11874 6.20269 1.31894 6.95676 1.82202 7.72268C2.0878 8.11072 2.93174 8.93935 3.50041 9.36467C4.49104 10.1035 4.762 10.4602 4.70763 10.9542C4.66967 11.2625 4.50744 11.4803 4.18816 11.6294C3.41411 12.0064 2.30439 11.5388 1.40005 10.4543L1.19985 10.2153V14.6321L1.56228 14.7439C2.29835 14.9727 2.53739 14.9989 3.82487 14.9989C4.97859 14.9989 5.09767 14.9888 5.4765 14.8769C6.61901 14.5262 7.55011 13.7611 8.06958 12.7562C8.16709 12.5698 8.29135 12.2987 8.34572 12.1445L8.4484 11.8632V13.3883L8.45358 14.9193H12.1348L12.146 11.6031L12.1624 8.28611L13.4611 11.5871L14.7658 14.8931L16.3467 14.9091L17.9276 14.9193V1.04627H14.2464L14.2352 4.05489L14.2196 7.05843L13.3533 4.05489L12.4869 1.04712H8.45358V5.12328C8.4484 9.19013 8.4484 9.20538 8.34572 8.92918C8.08597 8.21748 7.56563 7.56848 6.74931 6.94151C6.42917 6.69665 5.98562 6.35097 5.75781 6.17558C5.22194 5.76042 4.98981 5.43169 4.98981 5.08092C4.98981 4.85725 5.0157 4.78861 5.18397 4.61323C5.40573 4.36838 5.64994 4.27264 6.03913 4.27857C6.46713 4.28874 7.11088 4.6234 7.58721 5.08601L7.96689 5.45287V1.48261L7.62 1.34451C6.8891 1.06237 6.47749 0.982726 5.58437 0.961544C5.00016 0.950531 4.64378 0.966628 4.41597 1.01492ZM40.0254 1.04119C39.8096 1.09456 39.4195 1.23775 39.165 1.36569C38.3798 1.7478 37.6169 2.5671 37.2701 3.39572C37.1941 3.58212 37.1293 3.74141 37.119 3.74649C37.1078 3.7575 37.0154 3.59229 36.9128 3.37454C36.2845 2.05112 35.0455 1.31739 33.0857 1.10473C32.6853 1.05729 31.277 1.04627 28.3267 1.05729L24.1372 1.07338L23.2113 3.00768L22.2853 4.93773L22.269 2.99158L22.2586 1.04627H18.4687V14.9193H22.2586V12.0064L22.2638 9.09947L23.4063 12.0064L24.554 14.9193H31.7318L31.749 13.0164C31.7543 11.9742 31.7543 10.7254 31.749 10.2424C31.743 9.75865 31.7594 9.40195 31.781 9.44431C31.8025 9.48667 32.2676 10.7364 32.8148 12.2191L33.8054 14.9134L36.0844 14.9405C37.3356 14.9575 38.8405 14.9829 39.43 15.0049C40.3835 15.0312 40.5397 15.0201 40.9728 14.9202C41.5787 14.7792 42.1458 14.5094 42.634 14.13C43.1224 13.7506 43.52 13.2707 43.7989 12.7241C44.1242 12.0861 44.2433 11.5709 44.2752 10.7203C44.346 8.89698 43.7989 7.90823 41.9911 6.57464C40.7243 5.64435 40.4482 5.18683 40.8262 4.66068C41.2059 4.13538 42.0886 4.16673 42.8678 4.73524C43.1922 4.96908 43.8041 5.58589 43.8041 5.6757C43.8041 5.70282 43.8317 5.72399 43.8584 5.72399C43.8912 5.72399 43.9128 4.9801 43.9128 3.6033V1.48685L43.5987 1.34874C42.9817 1.07762 42.4562 0.98188 41.3957 0.960698C40.5776 0.9446 40.3558 0.956461 40.0254 1.04119ZM27.9315 10.3857L27.916 13.2451L26.6328 10.2052C25.9235 8.53604 25.3444 7.14823 25.3444 7.12197C25.3444 7.10079 25.9225 5.89937 26.6267 4.45903L27.916 1.83253L27.9315 4.68186C27.9375 6.25014 27.9375 8.81734 27.9315 10.3857ZM32.7664 4.27264C33.2911 4.56494 33.5672 5.14955 33.5025 5.85702C33.4266 6.78137 32.8312 7.41936 32.0459 7.42444H31.7318V4.05998L32.1055 4.08709C32.3928 4.10827 32.5498 4.15487 32.7664 4.27264ZM38.1148 8.39794C38.3694 8.65805 38.8241 9.0622 39.1219 9.29604C39.4195 9.52989 39.7768 9.81117 39.9226 9.92806C40.7459 10.6084 40.5293 11.5709 39.511 11.7514C38.8457 11.8683 37.6652 11.2303 37.1242 10.4602C37.0379 10.3373 36.9456 10.2424 36.924 10.2424C36.8964 10.2424 36.8696 10.7626 36.8635 11.3947L36.8481 12.5436L36.0196 10.8583C35.5597 9.92806 35.1964 9.16811 35.2076 9.16302C35.7702 8.88681 35.9274 8.77498 36.2845 8.43437C36.6099 8.12089 36.7453 7.9345 36.9292 7.57356L37.1621 7.11096L37.4055 7.5151C37.541 7.74386 37.8499 8.12682 38.1148 8.39794Z" fill="black"/>
</g>
</g>
<defs>
<clipPath id="clip0_1_322">
<rect width="46" height="15" fill="white" transform="translate(0 0.5)"/>
</clipPath>
<clipPath id="clip1_1_322">
<rect width="44.0625" height="15" fill="white" transform="translate(0.96875 0.5)"/>
</clipPath>
</defs>
</svg>
